<?xml version="1.0" standalone="no"?>
<!DOCTYPE svg PUBLIC "-//W3C//DTD SVG 20010904//EN"
 "http://www.w3.org/TR/2001/REC-SVG-20010904/DTD/svg10.dtd">
<svg version="1.0" xmlns="http://www.w3.org/2000/svg"
 width="122.000000pt" height="122.000000pt" viewBox="0 0 122.000000 122.000000"
 preserveAspectRatio="xMidYMid meet">
<metadata>
Created by potrace 1.11, written by Peter Selinger 2001-2013
</metadata>
<g transform="translate(0.000000,122.000000) scale(0.100000,-0.100000)"
fill="#000000" stroke="none">
<path d="M230 979 c-41 -72 -84 -147 -95 -167 -10 -21 -23 -38 -27 -40 -4 -2
-8 -7 -8 -12 0 -5 -20 -42 -44 -83 -41 -70 -44 -78 -33 -106 6 -17 15 -31 20
-31 4 0 5 -4 2 -10 -3 -5 -2 -10 3 -10 5 0 12 -8 16 -17 3 -10 14 -31 24 -48
11 -16 28 -46 40 -66 11 -20 26 -45 33 -57 10 -17 10 -24 -5 -46 -9 -15 -14
-31 -11 -36 8 -12 66 -41 74 -36 4 3 27 -29 50 -69 35 -58 50 -75 73 -80 16
-4 35 -2 42 4 7 6 21 9 30 5 9 -3 16 -1 16 6 0 6 5 8 11 4 17 -10 149 -11 149
-1 0 4 5 5 11 1 17 -10 149 -11 149 -1 0 4 5 5 12 1 6 -4 40 -8 76 -8 73 -1
68 -6 141 124 23 41 46 82 51 90 5 8 34 58 64 110 30 52 60 101 66 108 6 6 8
12 5 12 -4 0 3 13 14 29 12 16 21 35 21 43 0 8 -52 103 -115 211 -63 109 -115
199 -115 202 0 2 -14 26 -31 54 l-32 51 -301 0 -301 0 -75 -131z"/>
</g>
</svg>
